<?xml version="1.0" standalone="no"?>
<!DOCTYPE svg PUBLIC "-//W3C//DTD SVG 20010904//EN"
 "http://www.w3.org/TR/2001/REC-SVG-20010904/DTD/svg10.dtd">
<svg version="1.0" xmlns="http://www.w3.org/2000/svg"
 width="260.000000pt" height="260.000000pt" viewBox="0 0 260.000000 260.000000"
 preserveAspectRatio="xMidYMid meet">
<metadata>
Created by potrace 1.11, written by Peter Selinger 2001-2013
</metadata>
<g transform="translate(0.000000,260.000000) scale(0.100000,-0.100000)"
fill="#000000" stroke="none">
<path d="M915 1986 c-260 -59 -246 -179 40 -347 l100 -59 -166 0 c-207 0 -199
6 -199 -143 0 -118 9 -137 61 -137 l29 0 0 -325 c0 -303 1 -326 18 -343 17
-17 43 -19 260 -25 133 -3 351 -3 484 0 217 6 243 8 260 25 17 17 18 40 18
343 l0 325 29 0 c53 0 61 19 61 139 0 146 8 141 -196 142 -181 1 -221 8 -153
28 69 21 221 95 257 126 26 22 32 34 30 59 -4 40 -47 62 -160 83 -143 25 -254
5 -323 -58 l-44 -40 -21 47 c-31 71 -62 106 -121 139 -64 34 -168 43 -264 21z
m212 -116 c47 -28 81 -87 99 -170 8 -40 13 -76 12 -81 -2 -5 -46 11 -98 34
-159 72 -240 131 -240 174 0 54 160 85 227 43z m519 -71 c76 -20 69 -41 -30
-88 -48 -22 -214 -81 -230 -81 -12 0 20 90 41 118 44 58 119 76 219 51z m-596
-359 l0 -130 -159 0 c-132 0 -162 3 -175 16 -23 22 -23 206 0 228 13 13 43 16
175 16 l159 0 0 -130z m834 114 c12 -12 16 -38 16 -114 0 -76 -4 -102 -16
-114 -13 -13 -43 -16 -175 -16 l-159 0 0 130 0 130 159 0 c132 0 162 -3 175
-16z m-801 -261 l97 -6 0 -334 0 -333 -175 0 c-162 0 -177 2 -195 20 -19 19
-20 33 -20 340 l0 320 98 0 c53 0 141 -3 195 -7z m727 -313 c0 -307 -1 -321
-20 -340 -18 -18 -33 -20 -195 -20 l-175 0 0 335 0 334 68 4 c37 2 124 4 195
5 l127 2 0 -320z"/>
</g>
</svg>
